<svg xmlns="http://www.w3.org/2000/svg" version="1.0" width="64.000000pt" height="64.000000pt" viewBox="0 0 64.000000 64.000000" preserveAspectRatio="xMidYMid meet">

<g transform="translate(0.000000,64.000000) scale(0.100000,-0.100000)" fill="#ffffff" stroke="none">
<path d="M92 600 c-66 -41 -72 -62 -72 -280 0 -177 2 -198 20 -228 37 -60 71 -73 190 -70 85 3 105 6 105 18 0 12 -21 16 -105 20 -120 7 -135 12 -155 51 -19 36 -22 374 -3 414 22 49 51 55 248 55 190 0 227 -7 246 -47 4 -10 11 -65 14 -123 4 -84 8 -105 20 -105 12 0 15 20 18 105 3 119 -10 153 -70 190 -30 18 -51 20 -228 20 -177 0 -198 -2 -228 -20z" fill="#ffffff"/>
<path d="M142 507 c-29 -31 -28 -68 3 -97 22 -20 25 -32 25 -90 0 -58 -3 -70 -25 -90 -32 -30 -32 -70 -2 -98 30 -28 68 -28 95 1 28 30 28 64 0 94 l-21 23 22 24 c18 19 35 25 87 28 66 4 106 24 128 63 6 10 23 30 39 43 34 30 36 70 4 100 -30 28 -68 28 -95 -1 -27 -29 -28 -64 -2 -92 12 -13 18 -29 14 -38 -7 -20 -56 -37 -106 -37 -21 0 -52 -7 -68 -15 l-30 -16 0 39 c0 28 7 45 25 62 32 30 32 70 2 98 -30 28 -68 28 -95 -1z" fill="#ffffff"/>
<path d="M412 280 c-94 -57 -94 -183 0 -240 41 -25 82 -25 127 -2 47 23 72 61 78 113 11 108 -112 185 -205 129z m143 -71 c8 -12 -39 -84 -68 -104 -24 -16 -50 -6 -68 26 -16 31 4 48 30 25 18 -16 20 -15 51 24 33 41 44 48 55 29z" fill="#ffffff"/>
</g>
</svg>